#N canvas 90 33 463 582 10;
#X obj 61 13 notein;
#X obj 60 50 stripnote;
#X obj 75 319 midiparse;
#X obj 75 288 midiin;
#X obj 241 253 loadbang;
#X floatatom 109 389 5 0 0 0 - - -;
#X floatatom 14 85 5 0 0 0 - - -;
#X msg 241 278 60;
#X obj 241 306 vsl 15 128 0 127 0 0 empty empty empty 0 -9 0 10 -262144
-1 -1 6000 1;
#X floatatom 20 147 5 0 0 0 - - -;
#N canvas 662 626 971 552 ClarinetEngine 0;
#X obj 50 473 Clarinet~;
#X obj 203 90 inlet;
#X obj 232 159 hsl 128 15 0 128 0 0 empty empty empty -2 -6 0 8 -262144
-1 -1 0 1;
#X msg 229 187 stkCtrl 128 \$1;
#X msg 266 121 0;
#X text 292 121 Breath Pressure;
#X obj 632 147 hsl 128 15 0 128 0 0 empty empty empty -2 -6 0 8 -262144
-1 -1 0 1;
#X msg 629 176 stkCtrl 128 \$1;
#X text 663 112 Vibrato Frequency;
#X msg 419 179 stkCtrl 4 \$1;
#X text 516 120 Reed Stifness;
#X obj 821 150 hsl 128 15 0 128 0 0 empty empty empty -2 -6 0 8 -262144
-1 -1 0 1;
#X msg 818 178 stkCtrl 128 \$1;
#X text 852 114 Vibrato Gain;
#X obj 85 190 vsl 15 128 0 1500 0 0 empty empty empty 0 -8 0 8 -262144
-1 -1 0 1;
#X msg 85 121 220;
#X obj 43 365 bng 15 250 50 0 empty empty empty 0 -6 0 8 -262144 -1
-1;
#X msg 44 392 127;
#X msg 13 392 0;
#X obj 50 511 outlet~;
#X obj 517 18 loadbang;
#X obj 419 88 inlet;
#X msg 485 119 60;
#X obj 419 122 nbx 5 14 -1e+37 1e+37 0 0 empty empty empty 0 -8 0 10
-204224 -1 -1 60 256;
#X obj 203 123 nbx 5 14 -1e+37 1e+37 0 0 empty empty empty 0 -8 0 10
-204224 -1 -1 0 256;
#X obj 20 91 inlet;
#X obj 20 123 nbx 5 14 -1e+37 1e+37 0 0 empty empty empty 0 -8 0 10
-204224 -1 -1 0 256;
#X text 114 121 Frequency;
#X text 53 28 comment;
#X msg 629 111 -1;
#X msg 818 113 -1;
#X connect 0 0 19 0;
#X connect 1 0 24 0;
#X connect 2 0 3 0;
#X connect 3 0 0 3;
#X connect 4 0 2 0;
#X connect 6 0 7 0;
#X connect 7 0 0 3;
#X connect 9 0 0 3;
#X connect 11 0 12 0;
#X connect 12 0 0 3;
#X connect 14 0 0 2;
#X connect 15 0 14 0;
#X connect 16 0 17 0;
#X connect 17 0 0 1;
#X connect 18 0 0 1;
#X connect 20 0 29 0;
#X connect 20 0 4 0;
#X connect 20 0 30 0;
#X connect 20 0 22 0;
#X connect 21 0 23 0;
#X connect 22 0 9 0;
#X connect 23 0 9 0;
#X connect 24 0 2 0;
#X connect 25 0 26 0;
#X connect 26 0 14 0;
#X connect 29 0 6 0;
#X connect 30 0 11 0;
#X restore 60 471 pd ClarinetEngine;
#X text 271 278 Reed Stiffness;
#X text 139 319 Breath Pressure;
#X obj 52 539 dac~;
#X obj 60 112 - 19;
#N canvas 685 22 469 675 FrequencyEngine 0;
#X obj 80 24 inlet;
#X obj 303 50 inlet;
#X obj 238 175 inlet;
#X obj 80 112 coll;
#C restore;
#X obj 80 151 unpack 0;
#X obj 168 278 int;
#X obj 37 196 nbx 5 14 -1e+37 1e+37 0 0 empty empty empty 0 -8 0 10
-204224 -1 -1 0 256;
#X obj 21 72 nbx 5 14 -1e+37 1e+37 0 0 empty empty empty 0 -8 0 10
-204224 -1 -1 0 256;
#X obj 129 22 loadbang;
#X obj 168 356 nbx 5 14 -1e+37 1e+37 0 0 empty empty empty 0 -8 0 10
-204224 -1 -1 0 256;
#X obj 251 468 coll;
#C restore;
#X obj 300 324 loadbang;
#X msg 300 354 read index_to_freq.txt;
#X obj 168 418 nbx 5 14 -1e+37 1e+37 0 0 empty empty empty 0 -8 0 10
-204224 -1 -1 0 256;
#X obj 308 570 nbx 5 14 -1e+37 1e+37 0 0 empty empty empty 0 -8 0 10
-204224 -1 -1 0 256;
#X obj 308 605 outlet;
#X msg 129 61 read midi_to_index.txt;
#X obj 251 533 unpack s 0;
#X symbolatom 211 569 10 0 0 0 - - -;
#X obj 168 231 bng 15 250 50 0 empty empty empty 17 7 0 10 -262144
-1 -1;
#X text 302 31 Pedal Down;
#X text 237 157 Pedal Up;
#X obj 266 281 nbx 5 14 -1e+37 1e+37 0 0 empty empty empty 0 -8 0 10
-204224 -1 -1 0 256;
#X text 328 282 Pedal Position;
#X obj 251 355 +;
#X msg 339 228 0;
#X obj 339 176 loadbang;
#X text 337 156 Begin Down;
#X obj 238 228 int;
#X msg 195 248 30;
#X obj 60 277 osc~;
#X connect 0 0 7 0;
#X connect 0 0 3 0;
#X connect 1 0 25 0;
#X connect 1 0 19 0;
#X connect 2 0 28 0;
#X connect 2 0 19 0;
#X connect 3 0 4 0;
#X connect 4 0 6 0;
#X connect 5 0 24 0;
#X connect 6 0 5 0;
#X connect 8 0 16 0;
#X connect 10 0 17 0;
#X connect 10 1 17 0;
#X connect 11 0 12 0;
#X connect 12 0 10 0;
#X connect 13 0 10 0;
#X connect 14 0 15 0;
#X connect 16 0 3 0;
#X connect 17 0 18 0;
#X connect 17 1 14 0;
#X connect 19 0 29 0;
#X connect 19 0 5 0;
#X connect 22 0 24 1;
#X connect 24 0 13 0;
#X connect 25 0 22 0;
#X connect 26 0 25 0;
#X connect 28 0 22 0;
#X connect 29 0 24 0;
#X restore 60 250 pd FrequencyEngine;
#X obj 285 344 nbx 5 14 -1e+37 1e+37 0 0 empty empty Cents 0 -8 0 10
-204224 -1 -1 0 256;
#N canvas 321 847 270 279 PedalDown 0;
#X obj 74 14 key;
#X obj 74 47 select 49 51;
#X msg 29 91 -1;
#X msg 118 92 1;
#X obj 88 156 outlet;
#X obj -3 146 nbx 5 14 -1e+37 1e+37 0 0 empty empty empty 0 -8 0 10
-262144 -1 -1 0 256;
#X obj 155 130 nbx 5 14 -1e+37 1e+37 0 0 empty empty empty 0 -8 0 10
-262144 -1 -1 0 256;
#X obj -11 113 bng 15 250 50 0 empty empty empty 17 7 0 10 -262144
-1 -1;
#X obj 117 132 bng 15 250 50 0 empty empty empty 17 7 0 10 -262144
-1 -1;
#X connect 0 0 1 0;
#X connect 1 0 2 0;
#X connect 1 1 3 0;
#X connect 2 0 4 0;
#X connect 2 0 5 0;
#X connect 2 0 7 0;
#X connect 3 0 4 0;
#X connect 3 0 6 0;
#X connect 3 0 8 0;
#X restore 112 112 pd PedalDown;
#N canvas 48 849 267 256 PedalUp 0;
#X obj 102 53 select 49 51;
#X obj 99 142 outlet;
#X obj 103 19 keyup;
#X msg 99 101 0;
#X obj 48 131 bng 15 250 50 0 empty empty empty 17 7 0 10 -262144 -1
-1;
#X connect 0 0 3 0;
#X connect 0 1 3 0;
#X connect 2 0 0 0;
#X connect 3 0 1 0;
#X connect 3 0 4 0;
#X restore 165 190 pd PedalUp;
#N canvas 1030 22 678 582 ArticulationProcessor 0;
#X obj 515 316 onebang;
#X obj 554 268 bng 15 250 50 0 empty empty empty 17 7 0 10 -262144
-1 -1;
#X obj 50 374 inlet~;
#X obj 110 529 outlet~;
#X obj 490 30 receive APfirepedalupPU;
#X obj 315 30 receive APfirepedaldownPD;
#X obj 490 30 receive APfirepedalupPU;
#X obj 492 389 outlet;
#X obj 149 30 receive APfiremidiNOTEIN;
#X obj 230 168 bng 15 250 50 0 empty empty empty 17 7 0 10 -262144
-1 -1;
#X obj 101 130 bng 15 250 50 0 empty empty empty 17 7 0 10 -262144
-1 -1;
#X obj 110 438 *~;
#X obj 149 102 curve~;
#X obj 230 263 curve~;
#X obj 340 439 cycle~ 500;
#X obj 479 452 cycle~ 250;
#X msg 429 412 1;
#X floatatom 420 448 4 0 10 0 - - -;
#X obj 361 511 multiplex~;
#X msg 470 420 0;
#X obj 151 318 multiplex~;
#X msg 197 219 1;
#X msg 101 178 0;
#X msg 315 135 1;
#X msg 334 179 0;
#X msg 365 248 1000;
#X obj 208 377 vline~;
#X msg 149 69 1 \, 0 25 0.5;
#X msg 230 219 0 \, 1 25 0.5;
#X connect 1 0 0 1;
#X connect 2 0 11 0;
#X connect 8 0 27 0;
#X connect 9 0 21 0;
#X connect 9 0 28 0;
#X connect 10 0 22 0;
#X connect 11 0 3 0;
#X connect 12 0 20 0;
#X connect 12 1 9 0;
#X connect 13 0 20 1;
#X connect 14 0 18 0;
#X connect 15 0 18 1;
#X connect 16 0 17 0;
#X connect 17 0 18 0;
#X connect 19 0 17 0;
#X connect 20 0 11 1;
#X connect 21 0 20 0;
#X connect 22 0 20 0;
#X connect 27 0 12 0;
#X connect 27 0 10 0;
#X connect 28 0 13 0;
#X restore 60 505 pd ArticulationProcessor;
#X obj 111 84 send APfiremidiNOTEIN;
#X obj 181 221 send APfirepedalupUP;
#X obj 126 148 send APfirepedaldownPD;
#X obj 201 537 send APunknownTM;
#N canvas 662 22 363 497 TuningModule 0;
#X obj 130 25 inlet;
#X obj 199 156 capture;
#X msg 130 158 100;
#X obj 130 207 / 1;
#X obj 115 302 * 1;
#X obj 199 417 + 0;
#X msg 130 104 dump;
#X text 173 24 unknown;
#X obj 16 25 inlet;
#X obj 199 455 outlet;
#X obj 199 72 inlet;
#X text 238 72 Playback Frequency;
#X text 53 24 Adjustment;
#X connect 0 0 6 0;
#X connect 1 0 3 1;
#X connect 1 0 5 0;
#X connect 2 0 3 0;
#X connect 3 0 4 1;
#X connect 4 0 5 1;
#X connect 5 0 9 0;
#X connect 6 0 2 0;
#X connect 6 0 1 0;
#X connect 8 0 6 0;
#X connect 8 0 4 0;
#X connect 10 0 1 0;
#X restore 285 458 pd TuningModule;
#X obj 328 372 receive APunknownTM;
#X msg 142 39 \; pd dsp 1 \;;
#X obj 142 12 loadbang;
#X connect 0 0 1 0;
#X connect 0 1 1 1;
#X connect 1 0 6 0;
#X connect 1 0 14 0;
#X connect 1 1 20 0;
#X connect 2 4 5 0;
#X connect 3 0 2 0;
#X connect 4 0 7 0;
#X connect 5 0 10 1;
#X connect 7 0 8 0;
#X connect 8 0 10 2;
#X connect 10 0 19 0;
#X connect 14 0 9 0;
#X connect 14 0 15 0;
#X connect 15 0 10 0;
#X connect 16 0 24 0;
#X connect 17 0 22 0;
#X connect 17 0 15 1;
#X connect 18 0 21 0;
#X connect 18 0 15 2;
#X connect 19 0 13 0;
#X connect 19 0 13 1;
#X connect 19 1 23 0;
#X connect 25 0 24 1;
#X connect 27 0 26 0;
